<?xml version="1.0" standalone="no"?>
<!DOCTYPE svg PUBLIC "-//W3C//DTD SVG 20010904//EN"
 "http://www.w3.org/TR/2001/REC-SVG-20010904/DTD/svg10.dtd">
<svg version="1.0" xmlns="http://www.w3.org/2000/svg"
 width="664.000000pt" height="664.000000pt" viewBox="0 0 664.000000 664.000000"
 preserveAspectRatio="xMidYMid meet">
<metadata>
Created by potrace 1.11, written by Peter Selinger 2001-2013
</metadata>
<g transform="translate(0.000000,664.000000) scale(0.100000,-0.100000)"
fill="#000000" stroke="none">
<path d="M1020 5329 c-65 -29 -120 -79 -160 -145 -32 -54 -34 -63 -34 -143 0
-115 19 -154 132 -272 l90 -94 -48 -23 c-62 -29 -140 -115 -162 -177 -24 -68
-19 -176 11 -237 12 -25 52 -77 89 -115 116 -121 111 -108 60 -132 -153 -71
-221 -267 -145 -418 20 -38 164 -189 596 -624 313 -316 825 -832 1138 -1146
317 -320 576 -573 586 -573 9 0 17 -4 17 -8 0 -15 85 -31 146 -28 122 7 103
-10 772 664 337 339 645 650 684 689 38 40 71 73 72 73 2 0 66 64 144 143 877
885 807 802 806 947 0 72 -4 93 -26 135 -31 58 -85 114 -147 148 l-43 25 68
68 c125 125 155 184 150 298 -5 117 -70 216 -178 268 l-46 23 89 92 c112 117
134 161 133 268 0 60 -6 92 -22 128 -30 67 -106 140 -173 165 l-54 21 -2250 0
c-2215 -1 -2251 -1 -2295 -20z"/>
</g>
</svg>
