<?xml version="1.0" standalone="no"?>
<!DOCTYPE svg PUBLIC "-//W3C//DTD SVG 20010904//EN"
 "http://www.w3.org/TR/2001/REC-SVG-20010904/DTD/svg10.dtd">
<svg version="1.0" xmlns="http://www.w3.org/2000/svg"
 width="704.000000pt" height="704.000000pt" viewBox="0 0 704.000000 704.000000"
 preserveAspectRatio="xMidYMid meet">
<metadata>
Created by potrace 1.11, written by Peter Selinger 2001-2013
</metadata>
<g transform="translate(0.000000,704.000000) scale(0.100000,-0.100000)"
fill="#000000" stroke="none">
<path d="M980 4179 c-52 -4 -115 -14 -139 -23 -85 -31 -159 -102 -204 -196
-27 -56 -32 -76 -31 -145 0 -158 -112 -34 1387 -1532 955 -954 1345 -1338
1377 -1354 68 -34 204 -39 285 -9 58 22 98 61 1401 1364 1288 1288 1343 1343
1363 1399 28 78 28 186 0 262 -28 75 -104 156 -183 195 -54 27 -80 32 -182 40
-143 11 -4936 11 -5074 -1z"/>
</g>
</svg>
